<svg width="350" height="350" xmlns="http://www.w3.org/2000/svg" xmlns:xlink="http://www.w3.org/1999/xlink">
    <g>
        <circle cx="50%" cy="50%" r="50%" fill="#444" />
    </g>
    <g transform="translate(-100, -29), scale(0.95)">
        <path fill="#bbb" d="m249.035955,80.874681l-2.309991,-10.56092l0.313901,-5.964114l-2.197305,-3.452908c-0.26755,-2.364392 -0.322932,-4.917341 2.623891,-7.959223c0.665412,-0.570353 3.139007,-0.941702 3.026322,-1.143898c3.249626,0.202196 4.193395,3.969004 4.193395,3.655104c0,-0.313901 -3.072673,-9.646816 -3.565594,-12.130423c0.683039,-2.269334 2.309991,0.829996 2.197305,0.627801c0.112686,0.202195 5.448998,11.502622 6.0768,14.95553c0.627801,3.452908 -3.786647,6.790919 -2.531044,9.929926c1.255603,3.139008 1.122933,15.560301 1.010247,15.358104c1.063274,0.202197 -4.706589,5.787521 -8.837927,-3.314979z" />
        <path fill="#bbb" d="m357.959508,214.910293c-1.569503,0.941702 1.255603,6.591915 -2.825106,10.358724c-4.08071,3.766809 -1.883405,9.103121 0.3139,10.358724c2.197306,1.255603 5.650214,-0.627801 5.537523,-0.830004c0.112691,0.202203 5.135102,-2.936804 5.135102,-3.250705c0,-0.313901 2.825107,-5.336313 0.627802,-9.417022c-2.197305,-4.08071 -0.941702,-9.103121 -1.054393,-9.305323c0.112691,0.202202 -6.165324,1.143904 -7.734828,2.085606z" />
        <path fill="#000" d="m247.780352,90.919505l-0.112685,-10.560922c0.112685,0.202198 1.682189,0.202198 6.076799,-0.739504c4.39461,-0.941702 5.022412,-2.511206 4.909726,-2.713404c0.112686,0.202198 1.368289,11.502624 1.255603,11.300426c0.112686,0.202198 -3.340222,6.480213 -3.452908,6.278014c0.112686,0.202199 -6.166991,-0.740675 -8.676535,-3.56461z" />
        <path fill="#000" d="m233.027018,346.4347c-0.313901,0.941702 -0.941703,7.847518 -5.964115,8.78922c-5.022412,0.941702 -14.125532,8.47532 -12.242128,10.044824c1.883405,1.569503 16.322838,-0.941703 19.775746,-0.941703c3.452908,0 8.47532,-4.708511 8.47532,-8.78922c-0.000001,-4.08071 1.569504,5.022412 1.456818,4.820203c0.112686,0.202209 9.529707,3.027315 9.843608,-0.111692c0.313901,-3.139007 0.313901,-11.928228 0.201215,-12.130436c0.112686,0.202208 -7.420932,-5.134104 -21.546464,-1.681196z" />
        <path fill="#000" d="m340.381067,365.582644c-2.197304,8.161419 -3.452908,14.439434 -0.3139,16.950639c3.139007,2.511206 5.650212,2.197306 9.730922,-0.627801c4.08071,-2.825107 8.161419,-13.18383 11.928228,-13.811632c3.766809,-0.627802 1.883404,-13.183831 1.770714,-13.386039c0.11269,0.202208 -13.07114,1.457811 -23.115964,10.874833z" />
        <path fill="#999" d="m276.031417,176.614404c-3.139008,15.381136 9.730923,-42.6905 9.730923,-43.0044c0,-0.313901 -3.139007,-10.358725 -3.251694,-10.560923c0.112687,0.202198 0.121573,-16.773033 4.830084,-17.086934c4.708511,-0.313901 5.906665,-3.572558 6.649508,2.594185c1.063275,-4.645802 6.342139,-3.747909 9.167246,0.018899c2.825106,3.766809 1.752801,10.90924 1.640113,10.707041c0.112688,0.202199 2.937794,-1.053404 2.825106,-1.255602c0.112688,0.202198 -0.207747,4.050855 -0.285176,5.108584c-0.07743,1.057728 -1.710915,-0.916172 -2.226029,6.819643c-0.515114,7.735816 -1.770717,31.592272 -1.883405,31.390072c0.112688,0.2022 -16.837951,14.641633 -16.950639,14.439433c0.112688,0.2022 -7.107029,-14.551134 -10.246037,0.830002z" />
        <path fill="red" d="m264.260017,289.93325l0.830683,-7.420795l7.062804,-3.452928c7.330664,-11.099267 5.7613,-12.198155 15.492278,-20.045718c9.730978,-7.847563 12.713024,-12.085203 12.602,-12.286241c0.111024,0.201038 13.29493,16.523969 16.120053,30.335679c2.825122,13.811711 6.435015,11.614388 6.748917,16.322926c0.313903,4.708537 -1.726477,10.986593 0.156938,13.497813c1.883415,2.51122 7.06284,18.991171 8.946235,24.955268c1.883394,5.964097 3.295963,35.000113 6.748891,35.000113c3.452928,0 24.798299,-6.278051 26.053909,-12.556101c1.25561,-6.27805 -12.242198,-26.995616 -11.300491,-31.076349c0.941708,-4.080733 -6.278045,-29.820739 -11.143557,-36.098836c-4.865512,-6.278096 -4.237625,-7.376645 -4.86543,-9.573962c-0.627805,-2.197318 -0.941749,-0.156969 -1.569554,-2.668189c-0.627805,-2.51122 -0.313902,-21.973176 -3.452927,-30.448544c-3.139026,-8.475368 0.313902,-4.394636 0.202878,-4.595674c0.111024,0.201038 -10.24775,-30.247514 -14.328483,-34.642149c-4.080733,-4.394636 -2.511229,-20.403655 -2.511229,-20.403655c0,0 3.76683,-16.950736 5.650246,-16.950736c1.883415,0 22.600981,23.542689 24.798298,24.170494c2.197318,0.627805 5.336343,6.905855 6.905856,12.870003c1.569512,5.964148 1.25561,13.497808 1.144586,13.296769c0.111024,0.201039 15.806149,-1.368474 16.747857,-5.449206c0.941708,-4.080733 -12.870003,-28.879032 -11.928296,-33.273667c0.941708,-4.394635 -29.820739,-28.565129 -29.931763,-28.766168c0.111024,0.201039 1.052732,-4.821401 0.941708,-5.02244c0.111024,0.201039 -3.028001,-6.077011 -18.723127,-6.390914c-15.695126,-0.313903 -7.847563,1.569513 -7.958587,1.368474c0.111024,0.201039 -21.862152,25.627142 -21.973177,25.426103c0.111025,0.201039 -1.77239,-15.807989 -1.883415,-16.009028c0.111025,0.201039 5.447368,-14.866282 5.336343,-15.067321c0.111025,0.201039 -4.911416,-1.996278 -5.02244,-2.197317c0.111024,0.201039 -1.4585,-3.879691 -5.539221,-13.924575c-4.080721,-10.044884 -12.869998,-27.623395 -13.81171,-29.820738c-0.941712,-2.197343 -11.300486,4.394643 -13.811711,0.313902c-2.511225,-4.080741 11.30049,31.390252 12.242198,36.412692c0.941707,5.02244 4.080733,10.672685 6.905855,11.614393c2.825123,0.941707 -11.614403,12.242212 -13.497808,18.834151c-1.883406,6.591939 -3.452928,49.282695 4.080733,62.152698c7.53366,12.870003 6.27805,1.25561 6.167025,1.054572c0.111025,0.201038 14.236638,8.990308 14.125614,8.78927c0.111024,0.201038 -30.023617,34.10251 -30.965325,42.891781c-0.941707,8.78927 -7.53366,7.219757 -8.475368,28.565128c-0.941707,21.345371 -7.847563,48.340988 -7.958588,48.13995c0.111025,0.201038 27.420544,1.77055 27.30952,1.569513c0.111024,0.201037 1.837522,-7.332608 1.052732,-18.633114c-0.78479,-11.300506 0.156933,-18.520248 2.354251,-22.600981c2.197317,-4.080733 3.49887,-10.24592 3.923799,-18.206346z" />
        <path fill="#000" d="m305.224185,130.470996c0.313901,0 7.219717,18.206242 7.107029,18.004043c0.112688,0.202199 -11.501639,-3.564609 -11.614327,-3.766809c0.112688,0.202199 -19.035257,22.489151 -19.147944,22.286951c0.112687,0.2022 -2.398519,-17.06234 -2.511206,-17.264539c0.112687,0.202199 0.426588,-6.075815 0.313901,-6.278014c0.112687,0.202199 -0.515115,0.5161 0.740488,-2.936808c1.255603,-3.452908 4.708511,-6.591915 4.595824,-6.794114c0.112687,0.202199 4.193397,10.247022 4.080709,10.044823c0.112687,0.202199 -5.851427,19.036243 -5.964114,18.834043c0.112687,0.2022 22.085738,-32.129575 22.399639,-32.129575z" />
        <path fill="#000" d="m283.560461,123.101173c0.095059,0 -5.60847,-5.038117 -5.70353,-8.650354c-0.09506,-3.612237 -0.665411,-9.695998 3.897412,-12.167527c4.562824,-2.47153 5.608471,-4.848 8.270118,-3.612236c2.661647,1.235765 -0.570353,-2.471529 4.657882,-1.425882c5.228235,1.045647 4.562824,3.422118 7.699765,3.517176c3.136941,0.095059 2.37647,3.327059 4.087529,5.133177c1.711059,1.806117 3.327059,3.517177 3.422117,5.703529c0.095059,2.186352 -1.520941,6.178823 -1.520941,6.178823c0,0 -1.901176,3.517177 -3.707294,1.901177c-1.806117,-1.616 -0.190117,-8.650353 -5.60847,-8.93553c-5.418354,-0.285176 -6.749179,2.376469 -6.654119,2.37647c0.09506,0.000001 -4.182586,-3.041881 -6.939292,-1.330823c-2.756706,1.711059 -1.996236,11.312 -1.901177,11.312z" />
    </g>
</svg>